<svg width="22" height="32" viewBox="0 0 22 32" fill="none" xmlns="http://www.w3.org/2000/svg">
<g id="fa:rupee">
<path id="Vector" d="M20.4091 7.77273V10.0909C20.4091 10.303 20.3409 10.4773 20.2045 10.6136C20.0682 10.75 19.8939 10.8182 19.6818 10.8182H15.8636C15.5152 13 14.5379 14.7727 12.9318 16.1364C11.3258 17.5 9.23485 18.3333 6.65909 18.6364C9.18939 21.3333 12.6667 25.3939 17.0909 30.8182C17.303 31.0606 17.3333 31.3182 17.1818 31.5909C17.0606 31.8636 16.8409 32 16.5227 32H12.0909C11.8485 32 11.6591 31.9091 11.5227 31.7273C6.88636 26.1667 3.11364 21.8409 0.204545 18.75C0.0681818 18.6136 0 18.447 0 18.25V15.3636C0 15.1667 0.0719697 14.9962 0.215909 14.8523C0.359848 14.7083 0.530303 14.6364 0.727273 14.6364H3.27273C5.27273 14.6364 6.88258 14.3106 8.10227 13.6591C9.32197 13.0076 10.0985 12.0606 10.4318 10.8182H0.727273C0.515152 10.8182 0.340909 10.75 0.204545 10.6136C0.0681818 10.4773 0 10.303 0 10.0909V7.77273C0 7.56061 0.0681818 7.38636 0.204545 7.25C0.340909 7.11364 0.515152 7.04545 0.727273 7.04545H10.1136C9.25 5.33333 7.2197 4.47727 4.02273 4.47727H0.727273C0.530303 4.47727 0.359848 4.4053 0.215909 4.26136C0.0719697 4.11742 0 3.94697 0 3.75V0.727273C0 0.515152 0.0681818 0.340909 0.204545 0.204545C0.340909 0.0681818 0.515152 0 0.727273 0H19.6364C19.8485 0 20.0227 0.0681818 20.1591 0.204545C20.2955 0.340909 20.3636 0.515152 20.3636 0.727273V3.04545C20.3636 3.25758 20.2955 3.43182 20.1591 3.56818C20.0227 3.70455 19.8485 3.77273 19.6364 3.77273H14.3409C15.053 4.69697 15.5379 5.78788 15.7955 7.04545H19.6818C19.8939 7.04545 20.0682 7.11364 20.2045 7.25C20.3409 7.38636 20.4091 7.56061 20.4091 7.77273Z" fill="white"/>
</g>
</svg>
